HIERARCHY
ROOT Hips
{
	OFFSET -0.001795 -0.223333 0.028219
	CHANNELS 6 Xposition Yposition Zposition Zrotation Yrotation Xrotation 
	JOINT LeftUpLeg
	{
		OFFSET 0.069520 -0.091406 -0.006815
		CHANNELS 3 Zrotation Yrotation Xrotation
		JOINT LeftLeg
		{
			OFFSET 0.034277 -0.375199 -0.004496
			CHANNELS 3 Zrotation Yrotation Xrotation
			JOINT LeftFoot
			{
				OFFSET -0.013596 -0.397961 -0.043693
				CHANNELS 3 Zrotation Yrotation Xrotation
				JOINT LeftToe
				{
					OFFSET 0.026358 -0.055791 0.119288
					CHANNELS 3 Zrotation Yrotation Xrotation
					End Site
					{
						OFFSET 0.000000 0.000000 0.000000
					}
				}
			}
		}
	}
	JOINT RightUpLeg
	{
		OFFSET -0.067670 -0.090522 -0.004320
		CHANNELS 3 Zrotation Yrotation Xrotation
		JOINT RightLeg
		{
			OFFSET -0.038290 -0.382569 -0.008850
			CHANNELS 3 Zrotation Yrotation Xrotation
			JOINT RightFoot
			{
				OFFSET 0.015774 -0.398415 -0.042312
				CHANNELS 3 Zrotation Yrotation Xrotation
				JOINT RightToe
				{
					OFFSET -0.025372 -0.048144 0.123348
					CHANNELS 3 Zrotation Yrotation Xrotation
					End Site
					{
						OFFSET 0.000000 0.000000 0.000000
					}
				}
			}
		}
	}
	JOINT Spine
	{
		OFFSET -0.002533 0.108963 -0.026696
		CHANNELS 3 Zrotation Yrotation Xrotation
		JOINT Spine1
		{
			OFFSET 0.005487 0.135180 0.001092
			CHANNELS 3 Zrotation Yrotation Xrotation
			JOINT Spine2
			{
				OFFSET 0.001457 0.052922 0.025425
				CHANNELS 3 Zrotation Yrotation Xrotation
				JOINT Neck
				{
					OFFSET -0.002778 0.213870 -0.042857
					CHANNELS 3 Zrotation Yrotation Xrotation
					JOINT Head
					{
						OFFSET 0.005152 0.064970 0.051349
						CHANNELS 3 Zrotation Yrotation Xrotation
						End Site
						{
							OFFSET 0.000000 0.000000 0.000000
						}
					}
				}
				JOINT LeftShoulder
				{
					OFFSET 0.078845 0.121749 -0.034090
					CHANNELS 3 Zrotation Yrotation Xrotation
					JOINT LeftArm
					{
						OFFSET 0.090977 0.030469 -0.008868
						CHANNELS 3 Zrotation Yrotation Xrotation
						JOINT LeftForeArm
						{
							OFFSET 0.259612 -0.012772 -0.027456
							CHANNELS 3 Zrotation Yrotation Xrotation
							JOINT LeftHand
							{
								OFFSET 0.249234 0.008986 -0.001171
								CHANNELS 3 Zrotation Yrotation Xrotation
								End Site
								{
									OFFSET 0.000000 0.000000 0.000000
								}
							}
						}
					}
				}
				JOINT RightShoulder
				{
					OFFSET -0.081759 0.118833 -0.038615
					CHANNELS 3 Zrotation Yrotation Xrotation
					JOINT RightArm
					{
						OFFSET -0.096012 0.032551 -0.009143
						CHANNELS 3 Zrotation Yrotation Xrotation
						JOINT RightForeArm
						{
							OFFSET -0.253742 -0.013329 -0.021401
							CHANNELS 3 Zrotation Yrotation Xrotation
							JOINT RightHand
							{
								OFFSET -0.255298 0.007772 -0.005559
								CHANNELS 3 Zrotation Yrotation Xrotation
								End Site
								{
									OFFSET 0.000000 0.000000 0.000000
								}
							}
						}
					}
				}
			}
		}
	}
}
MOTION
Frames: 5
Frame Time: 0.050000
-1.688504 0.933730 -0.558217 -7.759601 66.483950 -6.481625 7.042345 -1.268611 -1.791254 -11.431393 -1.615309 -0.374523 16.662857 11.982266 -13.781135 0.000000 0.000000 0.000000 -4.494016 -2.207522 -16.545887 -1.005097 -8.574147 32.212417 1.002835 0.552922 -1.524149 0.000000 0.000000 0.000000 -1.235511 -0.767435 9.890140 -0.072945 -3.156412 7.222940 -6.013605 14.227281 2.482239 10.113578 2.518458 -27.919065 0.000000 0.000000 0.000000 -24.934107 -38.834644 1.452914 -25.817287 -11.813180 3.967299 -159.474918 -64.081453 134.855157 0.000000 0.000000 0.000000 21.625816 27.191515 29.303068 15.352858 34.004895 0.177922 -77.023661 56.870857 -38.905119 0.000000 0.000000 0.000000 
-1.668446 0.935083 -0.586123 -6.451561 66.048695 -4.947564 4.160745 -0.761744 -1.110245 -11.238181 -1.664701 -1.238635 16.888440 11.866182 -14.437726 0.000000 0.000000 0.000000 -1.900207 -1.497580 -17.889043 5.541536 -11.903342 30.709929 9.856530 19.584790 -3.264619 0.000000 0.000000 0.000000 -0.350381 -0.834797 9.973865 -0.088365 -2.322304 5.162245 -6.155544 12.755177 4.034951 9.936765 2.640880 -28.094066 0.000000 0.000000 0.000000 -25.316031 -39.416379 1.999868 -26.089610 -11.390006 3.890743 -159.146881 -62.657344 133.242147 0.000000 0.000000 0.000000 22.052041 26.957309 29.249069 14.616596 35.427499 0.047662 -72.006527 56.561163 -35.484498 0.000000 0.000000 0.000000 
-1.647219 0.934762 -0.610724 -4.619477 66.415790 -3.318461 1.656384 -0.404435 -0.171429 -11.898559 -1.860961 -1.673267 17.036640 11.290591 -15.465256 0.000000 0.000000 0.000000 0.593319 -0.767490 -18.086268 15.394852 -14.511922 22.529935 10.487619 19.316198 5.188221 0.000000 0.000000 0.000000 0.301106 -0.840265 9.707677 0.262237 -2.248609 4.435278 -6.942262 11.469796 4.659083 9.918274 2.698737 -28.684053 0.000000 0.000000 0.000000 -26.020021 -39.994978 2.416535 -26.382460 -11.983389 4.098356 -161.257881 -63.530055 137.195129 0.000000 0.000000 0.000000 22.303672 26.780166 29.151780 16.275145 35.941234 0.362480 -69.887783 56.387925 -33.811606 0.000000 0.000000 0.000000 
-1.625108 0.932956 -0.631998 -2.974524 65.085229 -2.270920 -1.159400 -0.067011 0.713476 -11.602538 -1.661185 -0.967949 17.933494 12.255090 -16.635533 0.000000 0.000000 0.000000 3.989991 0.304010 -16.971651 19.931769 -12.786688 13.337065 9.013012 15.403172 13.929957 0.000000 0.000000 0.000000 1.343267 -0.975385 10.062801 -0.154979 -1.625656 3.337063 -7.073888 10.723333 4.643659 10.460969 2.107129 -27.327339 0.000000 0.000000 0.000000 -27.289551 -41.509742 3.659323 -26.713164 -11.136805 4.090118 -165.388579 -63.553073 143.940656 0.000000 0.000000 0.000000 24.946149 26.433582 30.436181 15.636250 36.227696 -0.160331 -68.340389 57.992048 -34.486424 0.000000 0.000000 0.000000 
-1.600758 0.931123 -0.650234 -1.949466 62.435414 -1.636116 -3.308201 0.124929 0.415793 -12.092781 -1.370988 1.452307 19.309438 15.025170 -18.064094 0.000000 0.000000 0.000000 8.117862 1.310350 -14.836419 16.872483 -8.211756 7.603111 9.391447 15.733497 16.715409 0.000000 0.000000 0.000000 2.823766 -1.028349 9.526930 -0.853828 -1.503925 4.348186 -7.187589 10.415845 3.128616 9.861487 2.208306 -27.686643 0.000000 0.000000 0.000000 -27.259555 -39.845076 3.868188 -28.108818 -13.724966 4.435973 -167.225658 -65.834557 148.388371 0.000000 0.000000 0.000000 26.907207 25.760277 30.505923 16.286039 36.161260 -0.257880 -63.798669 60.330285 -33.357341 0.000000 0.000000 0.000000 
